<?xml version="1.0" standalone="no"?>
<!DOCTYPE svg PUBLIC "-//W3C//DTD SVG 20010904//EN"
 "http://www.w3.org/TR/2001/REC-SVG-20010904/DTD/svg10.dtd">
<svg version="1.0" xmlns="http://www.w3.org/2000/svg"
 width="700.000000pt" height="454.000000pt" viewBox="0 0 700.000000 454.000000"
 preserveAspectRatio="xMidYMid meet">
<metadata>
Created by potrace 1.15, written by Peter Selinger 2001-2017
</metadata>
<g transform="translate(0.000000,454.000000) scale(0.100000,-0.100000)"
fill="#000000" stroke="none">
<path d="M1496 4401 c-4 -6 -14 -11 -22 -11 -8 0 -36 -10 -62 -22 -26 -12 -56
-22 -67 -24 -31 -3 -131 -53 -151 -75 -9 -10 -22 -19 -29 -19 -6 0 -22 -11
-35 -25 -13 -14 -27 -25 -31 -25 -10 0 -69 -28 -120 -58 -74 -43 -191 -135
-232 -183 -21 -24 -60 -70 -87 -102 -28 -31 -50 -61 -50 -66 0 -5 -22 -36 -50
-68 -27 -32 -50 -63 -50 -70 0 -7 -20 -35 -45 -63 -25 -28 -45 -56 -45 -62 0
-6 -35 -62 -77 -125 -43 -63 -91 -138 -106 -166 -25 -46 -32 -63 -40 -102 -2
-5 -6 -16 -10 -23 -5 -7 -10 -30 -12 -52 -3 -22 -10 -50 -17 -63 -15 -27 -20
-911 -6 -940 5 -10 10 -47 11 -82 2 -34 8 -69 15 -78 7 -8 15 -30 17 -49 6
-52 10 -61 29 -90 10 -15 19 -39 21 -53 1 -14 14 -39 29 -54 14 -15 24 -30 21
-33 -10 -9 69 -72 109 -86 71 -25 169 -45 231 -47 33 -1 76 -6 95 -13 36 -11
313 -9 420 3 30 3 78 7 105 8 28 1 64 10 82 20 18 9 40 17 49 17 9 0 31 9 49
20 17 11 49 22 69 26 26 4 59 23 107 63 50 42 88 64 136 81 38 12 86 30 108
40 22 11 75 35 117 54 43 20 81 36 85 36 12 0 146 70 163 85 8 7 32 16 53 20
38 7 38 7 31 -20 -4 -15 -7 -35 -8 -44 -1 -9 -6 -25 -12 -36 -24 -44 -6 -103
38 -130 94 -56 126 -63 289 -61 191 2 190 1 373 155 17 15 18 14 15 -10 -5
-38 57 -123 101 -139 19 -7 43 -19 53 -28 9 -8 17 -12 17 -7 0 4 7 2 15 -5 8
-6 19 -9 25 -5 6 4 18 1 27 -7 12 -10 66 -13 217 -14 l201 -2 48 47 c27 25 53
55 58 66 6 14 8 -4 8 -55 1 -115 2 -124 16 -140 7 -9 12 -36 10 -68 -1 -29 2
-55 6 -58 5 -2 7 -27 5 -54 -2 -28 1 -53 6 -56 5 -3 7 -13 4 -21 -4 -9 -2 -21
4 -28 11 -13 21 -48 22 -75 0 -8 8 -23 16 -32 8 -10 12 -18 7 -18 -4 0 -2 -7
5 -15 6 -8 9 -19 5 -25 -4 -6 -1 -17 5 -25 7 -8 10 -21 7 -29 -3 -8 1 -20 9
-27 8 -7 13 -19 11 -28 -2 -9 7 -31 20 -48 13 -18 21 -33 18 -33 -4 0 14 -30
40 -66 26 -36 48 -72 49 -81 1 -8 26 -40 55 -70 29 -30 54 -61 55 -69 1 -7 9
-21 18 -31 9 -10 17 -22 17 -28 1 -12 115 -150 151 -182 61 -55 113 -93 126
-93 8 0 31 -10 52 -23 62 -39 102 -48 237 -53 82 -3 132 -9 136 -16 6 -9 11
-9 23 1 8 7 46 13 88 14 57 0 80 5 103 22 21 15 42 20 70 18 25 -1 57 6 90 21
121 57 142 66 157 66 9 0 21 7 28 15 7 9 15 13 18 10 3 -2 20 4 38 16 18 11
44 21 56 22 13 2 33 8 44 14 12 7 24 10 27 7 3 -3 33 3 66 15 34 12 69 21 79
21 10 0 22 4 28 9 11 11 94 24 143 22 18 -1 39 3 46 9 7 5 47 13 90 16 43 3
87 12 99 20 11 8 35 14 52 14 17 0 37 7 44 15 7 8 21 15 31 15 10 0 20 4 24
10 3 5 34 23 68 40 34 18 69 38 78 46 8 8 23 14 32 14 20 0 164 143 207 206
17 24 28 44 25 44 -3 0 2 11 11 25 9 14 13 25 9 25 -5 0 -1 8 8 18 8 9 19 31
23 47 3 17 12 37 19 45 7 8 13 22 13 30 2 35 10 70 19 82 14 20 4 973 -11 997
-9 15 -16 69 -19 151 -1 25 -5 50 -8 55 -4 6 -6 39 -5 75 2 52 -1 68 -15 77
-11 8 -16 23 -14 40 2 16 0 33 -5 38 -4 6 -10 30 -14 54 -4 24 -17 58 -29 75
-12 17 -22 33 -22 36 0 6 -9 18 -55 69 -16 18 -30 37 -30 43 0 5 -7 16 -15 25
-8 8 -13 18 -10 23 5 7 -58 80 -69 80 -12 0 -81 53 -112 85 -18 19 -35 35 -38
35 -4 0 -33 18 -65 40 -32 22 -66 40 -75 40 -9 0 -16 4 -16 8 0 5 -24 14 -52
22 -29 7 -55 16 -58 19 -3 4 -16 12 -30 19 -14 6 -32 16 -40 21 -24 14 -63 29
-95 36 -16 4 -32 11 -35 16 -3 5 -19 10 -36 12 -16 2 -35 7 -42 11 -7 4 -12 4
-12 1 0 -3 -12 0 -27 8 -45 24 -75 35 -123 48 -25 7 -49 16 -55 20 -5 4 -36
13 -67 20 -32 8 -58 17 -58 21 0 3 -26 12 -57 19 -32 7 -61 18 -65 23 -5 7
-104 12 -285 15 -289 3 -482 -9 -532 -35 -14 -8 -33 -14 -41 -14 -18 0 -96
-42 -161 -85 -24 -16 -64 -40 -89 -52 -45 -22 -136 -106 -198 -182 -43 -51
-92 -119 -92 -126 0 -3 -13 -23 -29 -45 -16 -22 -41 -79 -56 -127 -15 -49 -32
-97 -38 -108 -10 -19 -15 -53 -20 -140 -1 -22 -6 -47 -11 -55 -6 -8 -12 -42
-13 -75 -5 -87 -7 -98 -17 -114 -5 -8 -11 -35 -13 -60 -7 -89 -8 -463 -1 -467
3 -2 5 -30 4 -62 -1 -53 -6 -64 -43 -107 l-41 -48 -183 -1 c-139 -1 -185 2
-195 12 -8 7 -19 12 -26 11 -18 -4 -60 11 -78 26 -8 8 -28 17 -43 20 -16 4
-36 19 -45 34 -9 14 -25 34 -34 43 -10 10 -18 24 -19 31 0 6 -2 22 -3 34 -2
14 7 32 22 45 28 27 82 102 82 116 0 5 -18 10 -40 10 -60 1 -91 -42 -114 -159
-6 -27 -88 -98 -161 -139 -36 -21 -54 -23 -180 -23 -146 0 -211 13 -282 60
-45 30 -61 101 -31 139 5 7 8 16 7 20 -6 37 5 51 69 83 37 19 80 45 95 58 16
13 34 23 42 23 7 0 36 15 63 34 28 18 77 50 109 69 63 39 133 105 137 130 1 8
7 21 13 28 6 8 10 32 10 54 -2 36 -5 40 -37 47 -80 18 -195 0 -215 -33 -4 -5
-32 -25 -63 -45 -70 -44 -116 -88 -144 -134 -12 -19 -37 -54 -56 -78 -18 -23
-35 -48 -36 -55 -15 -73 -40 -117 -66 -117 -10 0 -23 -7 -31 -16 -12 -14 -104
-61 -194 -99 -38 -16 -89 -39 -165 -75 -19 -9 -62 -25 -95 -35 -33 -11 -79
-32 -103 -47 -24 -15 -46 -28 -51 -28 -4 0 -22 -16 -41 -35 -19 -19 -43 -35
-55 -35 -11 0 -37 -9 -58 -20 -20 -11 -46 -20 -56 -20 -11 0 -23 -4 -26 -10
-3 -5 -14 -10 -24 -10 -9 0 -22 -5 -29 -12 -6 -6 -39 -12 -74 -14 -35 -1 -88
-5 -118 -9 -87 -10 -322 -11 -355 -1 -16 5 -57 10 -90 11 -102 3 -253 44 -307
83 -27 18 -48 41 -48 49 0 8 -11 24 -26 35 -14 11 -23 23 -20 26 3 3 1 11 -5
19 -6 7 -8 13 -4 13 4 0 -2 15 -12 33 -20 34 -32 71 -39 121 -2 16 -9 33 -15
37 -6 4 -13 33 -15 65 -4 64 -9 98 -19 114 -14 23 7 7 40 -29 20 -21 52 -46
73 -56 20 -9 49 -23 65 -31 15 -8 32 -12 37 -9 6 3 13 0 16 -8 9 -25 55 -36
174 -43 51 -3 95 0 112 7 15 6 58 13 95 15 151 8 180 12 229 32 29 11 54 19
57 16 2 -3 35 7 72 20 36 14 88 28 113 30 26 2 79 16 117 31 39 15 120 42 180
60 136 41 167 54 234 99 29 20 58 36 65 36 6 0 33 11 60 25 27 13 53 22 57 19
5 -3 37 13 72 36 58 36 69 40 118 36 30 -2 62 1 73 6 15 8 85 18 146 20 8 0
20 5 26 9 6 5 24 11 40 13 16 2 40 8 54 13 14 6 45 9 70 7 28 -2 54 3 69 13
13 8 37 17 54 20 17 3 40 11 51 19 12 7 37 14 56 15 19 2 42 8 50 15 13 10 33
14 140 30 53 7 178 84 249 154 40 39 70 74 67 79 -3 5 4 20 15 35 11 14 17 30
14 36 -3 5 -3 16 2 23 12 18 14 49 16 325 2 193 -1 256 -10 264 -7 6 -13 16
-13 22 0 38 -90 176 -114 176 -7 0 -17 8 -22 19 -10 20 -113 113 -154 139 -14
9 -29 21 -35 27 -13 13 -161 124 -198 148 -15 10 -32 15 -36 12 -5 -3 -15 1
-23 8 -7 7 -21 16 -30 20 -10 3 -18 11 -18 18 0 6 -7 9 -15 5 -9 -3 -20 3 -27
14 -7 11 -23 20 -35 20 -13 0 -23 4 -23 8 0 4 -16 14 -35 21 -19 7 -35 17 -35
22 0 5 -9 9 -19 9 -11 0 -26 6 -33 13 -7 7 -35 19 -63 26 -27 7 -60 19 -73 27
-12 8 -27 12 -31 9 -5 -3 -17 2 -26 11 -9 9 -19 14 -22 10 -4 -3 -17 1 -31 10
-13 9 -34 13 -46 10 -12 -3 -35 2 -51 13 -18 10 -47 17 -70 16 -22 0 -49 4
-60 9 -11 6 -27 12 -35 13 -62 8 -83 13 -95 23 -20 17 -399 27 -409 11z m252
-55 c7 -4 27 -6 45 -5 18 2 39 -1 46 -5 8 -5 24 -10 35 -12 74 -11 89 -14 99
-22 7 -5 30 -9 52 -8 22 1 54 -5 70 -13 17 -8 45 -16 63 -17 19 -2 40 -8 47
-14 8 -7 18 -9 23 -6 6 3 15 -1 22 -10 7 -8 19 -13 25 -10 7 2 25 -4 41 -13
16 -10 43 -21 59 -25 38 -9 193 -84 201 -97 3 -6 12 -8 19 -5 7 2 21 -4 30
-14 10 -11 22 -17 26 -14 5 3 12 -2 15 -10 3 -9 12 -16 19 -16 7 0 18 -7 25
-15 7 -8 18 -14 24 -13 23 4 105 -49 232 -152 17 -14 47 -36 65 -50 19 -14 62
-53 96 -87 34 -35 67 -63 72 -63 6 0 16 -10 22 -22 7 -13 17 -27 24 -33 6 -5
22 -35 35 -65 13 -30 29 -62 35 -70 12 -16 13 -490 1 -545 -4 -16 -8 -39 -9
-50 -4 -32 -33 -77 -74 -116 -45 -43 -143 -98 -181 -103 -86 -11 -128 -20
-140 -29 -7 -6 -28 -12 -47 -14 -18 -2 -46 -10 -62 -18 -15 -8 -36 -15 -46
-15 -10 0 -29 -8 -43 -17 -15 -10 -49 -17 -82 -18 -31 -1 -68 -6 -82 -12 -14
-6 -31 -8 -38 -6 -7 3 -19 0 -27 -7 -13 -11 -67 -21 -130 -24 -16 0 -36 -5
-44 -10 -18 -12 -103 -17 -96 -5 4 5 14 9 24 9 9 0 30 13 46 30 16 17 33 30
38 30 5 0 26 13 47 30 21 17 42 30 47 30 12 0 175 170 232 242 25 31 50 73 56
94 7 22 32 82 58 134 46 96 65 150 52 150 -4 0 -89 -78 -189 -172 -108 -104
-201 -183 -230 -198 -27 -14 -83 -54 -125 -90 -52 -46 -96 -73 -141 -90 -36
-14 -69 -25 -75 -25 -5 -1 -32 -11 -58 -24 -26 -12 -58 -23 -70 -23 -12 -1
-28 -6 -35 -11 -17 -13 -320 -10 -374 3 -24 6 -65 13 -93 15 -141 13 -185 50
-146 123 6 12 8 22 4 22 -3 0 5 13 20 28 15 16 25 31 22 34 -10 9 102 124 138
142 43 21 154 122 144 132 -10 11 -53 -14 -111 -66 -46 -41 -68 -55 -116 -74
-8 -4 -27 -14 -41 -24 -92 -62 -115 -75 -143 -84 -48 -16 -95 -38 -101 -48 -3
-6 -17 -10 -29 -10 -13 0 -29 -6 -35 -14 -11 -13 -75 -32 -93 -28 -4 1 -24 -7
-43 -18 -49 -27 -91 -34 -215 -35 -89 0 -112 4 -152 23 -26 12 -52 22 -58 22
-18 0 -26 35 -23 95 2 51 8 68 43 117 22 31 40 61 40 67 0 23 222 191 253 191
5 0 24 12 44 27 19 15 41 28 48 29 35 5 258 147 317 201 26 23 51 43 56 43 14
0 213 200 208 209 -3 4 8 21 25 37 16 15 27 34 25 40 -3 7 2 20 9 31 8 10 15
25 15 33 0 9 10 31 23 50 20 30 23 46 21 110 -1 41 -4 82 -6 91 -6 28 -56 79
-77 79 -11 0 -24 8 -30 18 -8 15 -25 17 -118 16 -59 0 -123 -3 -141 -6 -18 -3
-35 -2 -37 2 -6 10 43 50 62 50 7 0 24 7 36 15 13 8 43 17 67 20 24 3 52 12
60 20 9 8 25 15 36 15 11 0 24 4 30 10 15 15 269 20 292 6z m-375 -191 c15 -4
27 -11 27 -16 0 -5 10 -9 23 -9 24 -1 79 -50 84 -78 2 -9 6 -50 8 -91 4 -65 1
-78 -21 -110 -13 -19 -24 -42 -24 -51 0 -8 -7 -24 -15 -34 -8 -10 -12 -23 -9
-28 3 -4 -55 -68 -129 -142 -99 -97 -158 -147 -221 -184 -48 -29 -91 -52 -97
-52 -6 0 -25 -11 -43 -25 -18 -14 -40 -25 -48 -25 -9 0 -21 -7 -28 -15 -7 -8
-17 -15 -22 -15 -5 0 -24 -11 -42 -25 -18 -14 -36 -25 -39 -25 -11 0 -122 -78
-141 -99 -11 -11 -24 -21 -31 -21 -19 0 -135 -127 -135 -148 0 -10 -9 -27 -20
-37 -37 -34 -60 -94 -63 -163 l-2 -65 65 -35 c60 -33 72 -35 164 -38 63 -1
113 3 137 11 20 8 39 11 42 9 3 -3 25 4 49 16 23 12 60 24 82 26 21 3 50 13
64 22 14 9 37 18 51 20 14 2 39 14 56 26 16 13 43 26 60 30 16 4 66 32 111 62
80 52 128 73 86 37 -30 -26 -111 -142 -129 -183 -26 -62 -23 -89 15 -118 28
-21 45 -26 101 -27 37 -1 73 -5 80 -10 25 -15 63 -18 241 -21 103 -1 180 2
187 8 6 5 26 11 43 13 18 3 53 14 79 27 25 12 53 23 61 24 50 6 147 59 208
112 37 33 94 74 127 91 34 18 93 64 135 106 42 41 80 75 86 75 6 0 46 33 88
73 42 41 76 71 76 68 0 -3 -21 -48 -47 -101 -25 -52 -51 -112 -57 -132 -20
-66 -264 -308 -311 -308 -6 0 -22 -11 -35 -25 -13 -14 -30 -25 -38 -25 -8 0
-30 -13 -49 -30 -18 -16 -41 -31 -51 -32 -9 -1 -420 -2 -912 -2 -647 -1 -901
-4 -915 -12 -11 -7 -33 -18 -50 -25 -16 -7 -41 -21 -56 -30 l-25 -18 1 322 c0
183 5 328 10 337 10 16 14 29 21 74 2 16 9 35 15 43 7 7 9 16 6 19 -3 3 3 21
14 40 10 19 19 41 19 48 0 7 10 26 22 41 11 15 31 44 42 65 12 22 37 63 57 92
19 29 44 69 55 88 10 19 33 51 49 71 17 19 35 44 42 55 8 14 8 9 -1 -17 -6
-20 -18 -44 -25 -53 -8 -9 -15 -24 -16 -34 -1 -9 -11 -37 -23 -62 -12 -25 -22
-51 -22 -58 0 -7 -11 -29 -23 -50 -44 -70 -97 -183 -97 -208 0 -13 -7 -41 -16
-62 -8 -20 -17 -53 -18 -73 -2 -20 -13 -51 -25 -68 -28 -38 -14 -41 21 -3 41
44 61 81 60 113 0 16 8 49 18 72 11 23 20 54 20 69 0 27 51 139 97 210 12 21
23 43 23 50 0 7 10 33 22 58 12 25 22 53 23 63 1 9 10 26 19 36 9 9 16 24 16
32 1 40 120 229 145 229 6 0 41 27 78 60 38 33 72 60 78 60 5 0 28 17 52 39
23 21 58 42 77 46 19 4 40 12 47 17 6 5 34 11 63 12 28 2 53 5 55 8 6 6 138 1
168 -7z m3874 -669 c4 -3 17 -6 29 -6 13 0 25 -4 28 -9 3 -4 25 -11 48 -15 24
-4 52 -13 63 -19 11 -7 45 -19 75 -26 30 -8 60 -17 65 -21 6 -4 33 -13 60 -20
28 -8 66 -21 85 -29 19 -8 40 -16 45 -17 6 -1 12 -3 15 -4 3 -1 12 -3 21 -5 9
-1 32 -10 50 -18 19 -8 54 -20 78 -28 24 -7 68 -27 96 -44 28 -17 73 -37 98
-45 26 -7 50 -17 53 -21 3 -5 12 -9 21 -9 21 0 149 -87 177 -121 13 -15 36
-34 52 -42 44 -23 123 -98 118 -112 -3 -6 2 -18 11 -25 8 -7 15 -16 15 -21 0
-5 20 -34 45 -65 72 -88 80 -102 90 -170 2 -12 8 -31 14 -41 6 -11 8 -31 6
-43 -3 -15 2 -28 14 -37 16 -11 19 -23 16 -80 -2 -37 -1 -72 3 -77 4 -6 8 -36
9 -66 5 -91 8 -114 17 -129 9 -14 17 -331 9 -331 -7 0 -47 22 -53 29 -3 3 -18
13 -35 21 -16 8 -45 25 -62 38 -45 33 -144 92 -154 92 -5 0 -9 7 -9 15 0 8 -4
15 -9 15 -5 0 -23 13 -40 29 -18 17 -42 33 -54 37 -12 3 -37 18 -56 33 -50 39
-81 59 -127 80 -23 11 -48 29 -57 41 -8 11 -18 20 -23 19 -19 -3 -32 2 -55 22
-13 11 -45 35 -71 52 -27 17 -48 34 -48 39 0 4 -8 8 -18 8 -23 0 -48 30 -44
53 2 11 -3 17 -13 17 -10 0 -30 11 -47 25 -16 14 -37 25 -45 25 -27 0 -172
150 -177 184 -1 7 -26 41 -56 76 -30 34 -55 66 -55 71 0 5 -10 16 -22 24 -13
9 -23 25 -23 36 0 10 -4 19 -9 19 -8 0 -18 41 -22 90 -1 8 -6 20 -11 26 -4 6
-6 19 -2 28 3 9 2 16 -4 16 -11 0 -26 55 -23 87 1 12 -3 24 -8 28 -6 3 -8 12
-4 20 3 8 -2 32 -10 53 -8 20 -13 49 -11 64 1 15 -1 30 -6 33 -4 3 -6 14 -3
25 3 11 1 20 -4 20 -19 0 -73 -67 -79 -98 -4 -17 -12 -36 -18 -41 -19 -16 -19
38 0 67 23 35 8 40 -26 7 -16 -16 -28 -31 -25 -33 3 -3 0 -11 -6 -19 -6 -7
-12 -42 -13 -76 -1 -54 -6 -70 -31 -106 -16 -23 -33 -47 -36 -54 -3 -7 -17
-34 -32 -62 -14 -27 -26 -54 -28 -60 -1 -5 -12 -26 -24 -45 -27 -44 -76 -150
-69 -150 3 0 -11 -23 -31 -52 -21 -28 -38 -58 -39 -65 -1 -8 -30 -48 -64 -89
-34 -41 -62 -76 -62 -79 0 -8 -80 -79 -108 -96 -15 -8 -56 -34 -92 -57 -36
-23 -70 -42 -76 -42 -6 0 -19 -9 -29 -20 -10 -11 -22 -17 -27 -14 -5 3 -19 -3
-31 -14 -32 -29 -62 -42 -94 -42 -16 0 -34 -5 -40 -11 -11 -11 -94 -20 -172
-20 -21 0 -47 -10 -69 -27 l-34 -26 -25 29 c-28 32 -82 64 -98 58 -7 -2 -10
32 -8 99 5 145 7 164 21 180 6 8 11 28 11 44 -1 62 7 150 16 164 6 8 11 33 12
55 3 62 10 106 21 129 5 12 17 48 27 81 18 62 58 149 81 175 7 8 13 18 13 23
1 26 188 227 212 227 6 0 29 13 52 28 23 16 68 41 100 57 31 15 60 31 63 36 3
5 15 9 28 9 12 0 27 5 32 10 6 6 33 12 60 15 64 5 147 15 150 18 5 5 526 -2
531 -7z m11 -263 c-1 -16 4 -38 11 -51 7 -13 10 -30 7 -39 -3 -8 -3 -20 1 -26
4 -7 8 -23 9 -37 3 -38 9 -56 23 -74 7 -8 10 -20 6 -26 -3 -5 -3 -16 1 -22 8
-13 13 -34 17 -75 1 -12 8 -28 15 -35 6 -6 12 -17 12 -23 0 -6 11 -22 25 -35
13 -12 23 -25 22 -29 -2 -6 12 -23 71 -87 20 -21 37 -46 37 -54 1 -15 96 -123
144 -164 14 -12 35 -31 47 -43 12 -13 27 -23 33 -23 6 0 14 -7 17 -15 4 -8 10
-13 15 -10 4 3 20 -8 35 -25 15 -16 33 -30 41 -30 7 0 13 -3 13 -8 0 -4 12
-13 28 -19 15 -7 49 -31 76 -53 27 -23 55 -39 62 -36 6 2 22 -6 34 -19 12 -13
41 -33 64 -45 70 -36 90 -49 102 -64 6 -8 33 -26 60 -40 27 -14 67 -42 89 -62
42 -40 79 -65 133 -89 17 -9 32 -19 32 -24 0 -5 14 -14 30 -21 17 -7 30 -15
30 -19 0 -3 -330 -6 -733 -6 l-732 0 2 350 c3 591 8 789 19 810 5 11 9 37 7
59 -1 21 4 51 13 67 8 16 12 34 8 40 -9 15 15 69 44 102 14 15 27 27 29 27 2
0 2 -12 1 -27z m-159 -316 c-13 -31 -17 -174 -21 -789 -1 -175 -5 -318 -8
-319 -29 -5 -212 -3 -235 3 -16 4 -68 9 -114 12 -46 3 -89 10 -95 15 -6 4 -29
8 -51 7 -22 -1 -57 4 -77 10 -20 7 -67 15 -103 18 -37 3 -73 10 -81 17 -7 6
-21 9 -29 5 -9 -3 -18 0 -21 8 -3 7 -19 13 -37 14 -17 0 -37 8 -43 16 -6 9
-19 16 -29 16 -10 0 -33 11 -51 25 -18 14 -36 25 -40 25 -15 0 -74 52 -69 60
3 5 18 9 33 9 64 -1 148 7 162 16 8 5 27 8 42 6 14 -1 29 2 33 8 3 6 14 11 24
11 10 0 26 9 36 20 10 11 24 20 30 20 7 0 18 7 25 15 7 8 42 29 79 47 36 17
85 47 108 65 23 18 45 33 50 33 12 0 203 193 203 206 0 6 18 34 41 62 23 28
41 54 41 59 -1 4 7 17 18 28 19 21 70 114 74 137 6 26 25 66 36 73 5 3 8 10 5
15 -3 4 6 22 20 38 14 17 24 34 23 39 -1 4 4 19 12 33 l15 25 3 -39 c2 -21 -2
-52 -9 -69z m-3027 -499 c-5 -5 -23 -11 -39 -13 -17 -2 -46 -13 -64 -24 -19
-12 -40 -21 -48 -21 -7 0 -39 -17 -70 -38 -71 -48 -87 -55 -218 -92 -59 -17
-121 -37 -138 -45 -58 -26 -128 -47 -176 -51 -26 -2 -69 -13 -94 -24 -25 -11
-60 -21 -78 -23 -18 -2 -50 -12 -72 -21 -37 -17 -122 -26 -238 -26 -27 0 -57
-5 -67 -10 -25 -14 -156 -15 -210 -2 -24 6 -50 18 -57 27 -6 10 -16 15 -21 12
-4 -3 -22 2 -38 12 -16 10 -41 21 -56 24 -16 4 -28 12 -28 17 0 6 -5 10 -12
10 -22 0 -116 108 -123 142 -21 93 -11 104 122 141 53 15 1739 19 1725 5z
m713 -11 c17 -2 36 -7 43 -11 28 -17 -5 -111 -46 -132 -12 -6 -30 -18 -40 -27
-10 -10 -22 -17 -26 -17 -4 0 -24 -13 -44 -29 -20 -17 -50 -33 -67 -37 -16 -4
-40 -16 -52 -27 -23 -21 -51 -38 -93 -58 -63 -30 -92 -40 -97 -35 -3 3 6 28
21 57 14 28 23 55 21 59 -3 4 4 15 15 25 11 10 20 22 20 28 0 32 165 187 199
187 5 0 13 6 19 13 10 11 54 13 127 4z m1176 -505 c154 -98 240 -161 329 -246
41 -39 77 -76 80 -83 3 -6 22 -29 42 -52 21 -22 46 -53 55 -69 10 -16 31 -46
47 -66 27 -34 28 -38 12 -55 -23 -25 -20 -38 5 -15 17 15 22 16 29 4 6 -10 4
-21 -7 -32 -13 -15 -14 -20 -3 -33 9 -11 16 -13 24 -5 17 17 23 12 45 -32 12
-24 34 -66 49 -95 15 -28 28 -56 29 -61 1 -6 14 -23 28 -38 25 -27 29 -36 26
-65 -1 -9 5 -19 14 -23 9 -3 13 -10 10 -16 -3 -6 3 -24 15 -40 12 -17 19 -30
15 -30 -3 0 14 -26 38 -57 24 -32 44 -60 44 -63 0 -15 17 -57 31 -72 8 -10 12
-18 8 -18 -4 0 1 -12 12 -27 21 -31 20 -82 -4 -119 -13 -19 -34 -98 -36 -134
0 -8 -5 -21 -11 -28 -5 -7 -10 -29 -11 -49 l-1 -35 -103 0 c-99 0 -161 12
-192 36 -18 14 -57 33 -86 41 -32 8 -215 192 -227 228 -4 9 -11 17 -17 17 -5
0 -10 6 -10 13 0 8 -9 22 -20 32 -11 10 -18 20 -16 24 7 12 -13 51 -26 51 -7
0 -24 16 -37 35 -13 19 -27 35 -32 35 -5 0 -9 8 -9 19 0 10 -7 24 -15 31 -8 7
-15 18 -15 25 0 7 -6 15 -13 18 -7 2 -21 22 -32 43 -11 22 -26 47 -34 57 -8 9
-10 17 -5 17 5 0 3 4 -3 8 -7 4 -14 17 -16 27 -1 11 -7 27 -12 35 -5 8 -8 23
-7 33 2 10 -2 24 -8 32 -7 8 -9 19 -5 25 4 6 -1 22 -10 36 -9 14 -19 42 -21
61 -2 19 -11 45 -20 58 -9 13 -13 29 -9 35 3 5 3 16 -1 22 -5 7 -8 31 -9 53 0
22 -3 45 -6 50 -3 6 -5 35 -4 65 1 30 -3 58 -8 61 -18 12 -28 195 -13 224 6
11 11 25 11 30 1 6 13 29 28 53 29 46 47 50 88 24z m261 -56 c4 3 17 -1 30
-10 13 -8 37 -14 53 -12 17 1 35 -1 40 -5 12 -8 82 -19 157 -23 31 -1 63 -8
70 -13 7 -6 29 -11 48 -12 19 0 55 -3 80 -7 25 -4 118 -7 208 -8 140 -1 161
-3 155 -16 -4 -8 -7 -118 -8 -245 0 -126 -4 -235 -8 -242 -7 -11 -18 -81 -21
-128 -1 -11 -5 -27 -11 -35 -5 -8 -11 -46 -13 -85 -5 -117 -7 -129 -19 -150
-7 -12 -9 -45 -6 -84 6 -71 -11 -79 -22 -11 -4 22 -11 40 -16 40 -5 0 -13 8
-16 18 -7 17 -15 28 -40 57 -7 7 -13 21 -13 29 0 9 -4 16 -9 16 -8 0 -22 28
-26 50 0 3 -6 15 -13 26 -6 12 -9 24 -5 27 3 3 -9 24 -26 45 -17 22 -31 47
-31 56 0 9 -4 16 -9 16 -5 0 -13 10 -16 23 -4 12 -14 33 -23 47 -9 14 -17 27
-17 30 0 3 -20 37 -43 77 -23 39 -42 76 -42 83 0 6 -7 13 -15 16 -8 4 -15 12
-15 20 0 7 -9 18 -19 24 -11 5 -23 20 -27 32 -4 13 -14 28 -23 35 -9 7 -13 13
-8 13 4 0 -11 16 -33 36 -22 20 -38 40 -35 44 3 5 -7 18 -22 30 -16 12 -63 55
-105 96 -43 41 -80 74 -84 74 -12 0 -53 38 -47 44 4 3 14 -1 23 -9 9 -8 19
-12 22 -9z m2495 -99 c3 -4 -6 -11 -20 -16 -14 -5 -28 -15 -32 -21 -3 -5 -10
-8 -15 -5 -5 3 -33 -10 -63 -29 -30 -19 -67 -38 -83 -42 -16 -4 -38 -13 -50
-21 -11 -7 -24 -10 -27 -7 -4 4 -12 2 -19 -4 -7 -5 -33 -15 -58 -22 -42 -11
-111 -38 -154 -62 -10 -5 -34 -12 -53 -14 -32 -4 -58 -15 -108 -47 -66 -41
-118 -72 -169 -100 -13 -7 -50 -36 -84 -65 -33 -29 -67 -52 -77 -52 -16 0 -28
-8 -104 -67 -16 -13 -34 -23 -41 -23 -6 0 -30 -15 -52 -34 -22 -19 -56 -42
-75 -51 -19 -9 -68 -48 -108 -86 -40 -38 -77 -69 -83 -69 -9 0 -61 -55 -174
-184 l-35 -39 2 100 c1 54 6 106 11 114 5 8 10 32 11 54 1 22 4 69 6 105 1 36
7 72 12 80 5 8 10 26 11 40 4 55 13 110 22 127 4 10 8 113 7 228 -1 116 -1
212 1 215 3 7 1593 4 1601 -3z m69 -305 c0 -167 -3 -302 -8 -309 -5 -6 -11
-25 -13 -42 -2 -17 -11 -41 -20 -53 -8 -13 -15 -31 -15 -42 0 -10 -9 -34 -21
-52 -11 -19 -18 -34 -14 -34 3 0 -3 -13 -14 -29 -12 -16 -21 -32 -21 -36 0
-15 -102 -118 -133 -135 -18 -9 -54 -29 -81 -43 -27 -15 -54 -27 -61 -27 -7 0
-20 -9 -30 -20 -10 -11 -24 -20 -30 -20 -7 0 -26 -7 -41 -15 -16 -8 -41 -15
-56 -15 -15 0 -29 -4 -33 -9 -5 -10 -109 -27 -132 -23 -7 2 -21 -2 -32 -7 -10
-6 -56 -13 -101 -17 -45 -3 -94 -12 -108 -20 -15 -8 -36 -14 -47 -14 -11 0
-33 -7 -50 -16 -16 -8 -43 -16 -60 -16 -16 0 -34 -4 -40 -8 -5 -4 -24 -11 -41
-14 -17 -4 -62 -22 -100 -41 -38 -19 -75 -35 -81 -35 -11 0 -73 -26 -150 -63
-13 -6 -40 -10 -60 -10 -21 0 -42 -3 -48 -6 -5 -4 -28 -7 -50 -6 -35 0 -40 3
-42 25 -21 324 -20 345 4 372 10 11 16 22 14 25 -6 8 131 163 143 163 6 0 39
29 74 64 35 34 75 69 90 77 15 7 39 24 55 38 15 14 27 21 27 16 0 -5 11 2 25
15 14 13 40 33 59 44 18 12 52 35 76 53 23 17 47 30 54 27 6 -2 25 9 41 26 16
16 33 30 38 30 4 0 29 18 55 39 26 22 63 47 83 55 19 8 42 22 49 32 21 24 161
88 189 86 13 -1 31 4 40 11 24 20 110 54 158 62 23 3 47 13 53 20 6 8 17 12
24 9 7 -3 19 2 26 10 7 9 16 13 21 11 4 -3 25 4 46 15 21 11 41 20 46 20 5 0
23 11 41 25 18 14 36 22 39 19 3 -4 28 10 55 30 27 20 54 36 60 36 5 0 15 7
22 15 7 9 15 13 19 10 3 -4 6 -140 7 -303z"/>
<path d="M4330 2991 c-117 -38 -197 -147 -188 -254 22 -259 368 -324 483 -92
27 54 27 156 1 209 -25 50 -73 97 -121 120 -42 20 -137 30 -175 17z m145 -60
c53 -24 83 -55 106 -105 26 -58 24 -105 -9 -167 -22 -43 -38 -59 -81 -81 -68
-36 -120 -36 -189 -2 -85 42 -130 144 -102 229 38 114 170 175 275 126z"/>
<path d="M6016 2954 c-85 -31 -149 -113 -162 -207 -14 -97 39 -204 124 -254
39 -23 59 -28 117 -28 58 0 78 5 117 28 55 32 92 76 113 136 69 197 -119 395
-309 325z"/>
<path d="M4210 1193 c-43 -22 -62 -41 -87 -82 -56 -93 -56 -179 0 -273 38 -63
114 -108 181 -108 122 0 226 115 226 250 0 73 -51 166 -113 204 -71 43 -136
46 -207 9z"/>
</g>
</svg>
