<?xml version="1.0" standalone="no"?>
<!DOCTYPE svg PUBLIC "-//W3C//DTD SVG 20010904//EN"
 "http://www.w3.org/TR/2001/REC-SVG-20010904/DTD/svg10.dtd">
<svg version="1.0" xmlns="http://www.w3.org/2000/svg"
 width="127.000000pt" height="123.000000pt" viewBox="0 0 127.000000 123.000000"
 preserveAspectRatio="xMidYMid meet">
<metadata>
Created by potrace 1.15, written by Peter Selinger 2001-2017
</metadata>
<g transform="translate(0.000000,123.000000) scale(0.100000,-0.100000)"
fill="#000000" stroke="none">
<path d="M0 615 l0 -615 268 1 c243 1 263 2 217 14 -151 42 -304 159 -373 285
-61 113 -103 317 -80 390 3 8 12 42 20 75 8 33 17 67 19 74 9 32 71 129 116
182 71 83 187 154 300 183 77 20 240 21 313 1 319 -85 513 -403 445 -730 -36
-172 -166 -337 -325 -414 -46 -23 -92 -41 -102 -41 -10 0 -18 -4 -18 -10 0 -6
85 -10 235 -10 l235 0 0 615 0 615 -635 0 -635 0 0 -615z"/>
<path d="M535 1176 c-204 -43 -366 -184 -436 -382 -30 -82 -37 -228 -15 -314
28 -111 72 -187 156 -272 91 -92 182 -140 310 -165 210 -42 442 56 568 239 17
25 32 52 34 59 2 8 6 17 11 20 4 3 17 32 29 65 19 49 22 80 23 187 0 74 -4
131 -10 135 -5 4 -11 18 -13 32 -5 50 -65 153 -129 221 -36 38 -72 69 -79 69
-8 0 -14 5 -14 10 0 18 -140 79 -215 95 -83 17 -138 18 -220 1z m61 -252 c48
-16 55 -16 93 0 52 20 113 21 153 0 25 -13 48 -15 118 -9 80 6 89 5 98 -12 17
-34 45 -160 39 -177 -8 -21 -74 -22 -98 0 -15 14 -18 13 -36 -13 -18 -26 -19
-36 -10 -118 8 -78 14 -96 43 -136 19 -26 34 -52 34 -58 0 -6 -25 -45 -56 -86
l-56 -75 -72 0 c-40 0 -76 4 -81 9 -16 15 -244 18 -250 4 -3 -9 -26 -13 -69
-13 l-64 0 -66 71 c-36 39 -66 76 -66 81 0 6 13 27 29 47 17 21 29 45 27 55
-1 10 3 59 10 109 14 102 7 135 -26 117 -29 -15 -77 -12 -84 6 -14 35 8 144
35 180 6 7 37 9 87 6 59 -3 86 -1 108 11 38 21 94 21 160 1z"/>
<path d="M443 889 c-24 -15 -36 -34 -47 -72 -23 -80 -43 -176 -51 -242 l-7
-60 56 70 c30 39 55 73 56 76 0 3 -11 11 -23 18 -18 10 -24 21 -23 44 1 28 6
34 41 45 22 7 73 14 112 15 l73 2 0 47 c0 46 0 46 -47 62 -62 21 -101 20 -140
-5z"/>
<path d="M703 893 c-43 -15 -43 -15 -43 -64 l0 -49 73 0 c85 0 143 -14 156
-38 16 -27 14 5 -4 66 -11 36 -26 59 -49 77 -37 28 -71 31 -133 8z"/>
<path d="M423 568 c-65 -84 -123 -159 -127 -166 -6 -10 9 -32 50 -73 53 -54
62 -59 101 -59 l43 0 0 174 c0 145 2 175 15 180 16 6 61 -37 71 -66 4 -15 17
-18 74 -18 l70 0 20 40 c23 44 47 52 55 17 3 -12 7 -91 8 -174 l2 -153 46 0
c44 0 46 1 93 65 l48 66 -28 42 c-30 47 -150 207 -186 250 -23 26 -26 27 -130
27 l-106 0 -119 -152z m274 131 c58 -22 58 -60 -1 -94 l-45 -26 -50 21 c-27
12 -52 28 -55 36 -20 52 75 92 151 63z"/>
<path d="M543 504 c-22 -5 -23 -10 -23 -103 l0 -98 77 -7 c42 -3 98 -6 125 -6
l48 0 0 99 c0 64 -4 102 -11 107 -14 8 -185 15 -216 8z"/>
</g>
</svg>
